# xmcd
#
# Track frame offsets: 
#        175
#        24007
#        44770
#        82080
#        111755
#        146950
#        161087
#        194087
#        219095
#        257392
#        289450
#        308002
#
# Disc length: 4449 seconds
#
# Revision: 2
# Processed by: cddbd v1.4PL0 Copyright (c) Steve Scherf et al.
# Submitted via: ExactAudioCopy v0.90a11
#
DISCID=b0115f0c
DTITLE=Hobo Blues Band - Tábortûz mellett
DYEAR=1900
DGENRE=Blues
TTITLE0=Emigráns blues
TTITLE1=A szökevények hajója 
TTITLE2=Gyáva bohóc
TTITLE3=Rock'n'roll doktor
TTITLE4=Hely a térképen
TTITLE5=Dõlnek a szobrok
TTITLE6=Éjszakai Budapest Blues
TTITLE7=Temetõ tangó
TTITLE8=A vadászok kivonulása
TTITLE9=A látogató
TTITLE10=Szabadság angyala táncol
TTITLE11=Tábortûz mellett
EXTD=
EXTT0=
EXTT1=
EXTT2=
EXTT3=
EXTT4=
EXTT5=
EXTT6=
EXTT7=
EXTT8=
EXTT9=
EXTT10=
EXTT11=
PLAYORDER=
